<svg width="1280" height="640" viewBox="0 0 1280 640" fill="none" xmlns="http://www.w3.org/2000/svg" role="img" aria-labelledby="title desc">
  <title id="title">AnswerRank AI social preview</title>
  <desc id="desc">AnswerRank AI, an AI visibility diagnostic for ecommerce brands.</desc>
  <defs>
    <linearGradient id="bg" x1="88" y1="68" x2="1180" y2="574" gradientUnits="userSpaceOnUse">
      <stop stop-color="#050B12"/>
      <stop offset="1" stop-color="#0E1726"/>
    </linearGradient>
    <linearGradient id="card" x1="844" y1="162" x2="1140" y2="420" gradientUnits="userSpaceOnUse">
      <stop stop-color="rgba(56,189,248,0.16)"/>
      <stop offset="1" stop-color="rgba(139,92,246,0.12)"/>
    </linearGradient>
    <linearGradient id="mark-accent" x1="132" y1="144" x2="228" y2="252" gradientUnits="userSpaceOnUse">
      <stop stop-color="#38BDF8"/>
      <stop offset="1" stop-color="#8B5CF6"/>
    </linearGradient>
    <linearGradient id="mark-success" x1="136" y1="205" x2="208" y2="238" gradientUnits="userSpaceOnUse">
      <stop stop-color="#22D3EE"/>
      <stop offset="1" stop-color="#10B981"/>
    </linearGradient>
  </defs>

  <rect width="1280" height="640" rx="36" fill="url(#bg)"/>
  <rect x="56" y="52" width="1168" height="536" rx="30" fill="rgba(10, 16, 27, 0.72)" stroke="rgba(148, 163, 184, 0.14)"/>

  <circle cx="1100" cy="148" r="132" fill="rgba(56,189,248,0.10)"/>
  <circle cx="1156" cy="468" r="156" fill="rgba(139,92,246,0.10)"/>
  <circle cx="152" cy="520" r="96" fill="rgba(16,185,129,0.08)"/>

  <path d="M116 152C116 134.327 130.327 120 148 120H222C239.673 120 254 134.327 254 152V223.2C254 240.873 239.673 255.2 222 255.2H180.9L150 283.1C144.104 288.422 134.7 284.289 134.7 276.38V255.2H148C130.327 255.2 116 240.873 116 223.2V152Z" fill="#07131C" stroke="rgba(56,189,248,0.28)" stroke-width="3"/>
  <rect x="145" y="199" width="20" height="30" rx="8" fill="#34D399"/>
  <rect x="174" y="177" width="20" height="52" rx="8" fill="url(#mark-success)"/>
  <rect x="203" y="157" width="20" height="72" rx="8" fill="url(#mark-accent)"/>
  <path d="M137 242.1C155.611 225.43 173.284 220.065 192.529 222.336C203.835 223.669 214.041 227.776 228.4 236.4" stroke="rgba(226,232,240,0.48)" stroke-width="4" stroke-linecap="round"/>
  <path d="M221.8 139 226.2 149.2 236.4 153.6 226.2 158 221.8 168.2 217.4 158 207.2 153.6 217.4 149.2 221.8 139Z" fill="#E0E7FF"/>

  <rect x="286" y="128" width="286" height="36" rx="18" fill="rgba(56,189,248,0.10)" stroke="rgba(56,189,248,0.24)"/>
  <text x="315" y="151" fill="#67E8F9" font-family="Arial, Helvetica, sans-serif" font-size="18" font-weight="700" letter-spacing="2.6">
    AI VISIBILITY DIAGNOSTIC
  </text>

  <text x="286" y="246" fill="#F8FAFC" font-family="Arial, Helvetica, sans-serif" font-size="80" font-weight="700" letter-spacing="-2">
    AnswerRank AI
  </text>
  <text x="286" y="306" fill="#CBD5E1" font-family="Arial, Helvetica, sans-serif" font-size="34" font-weight="500">
    AI Visibility Diagnostic for Ecommerce Brands
  </text>
  <text x="286" y="374" fill="#E2E8F0" font-family="Arial, Helvetica, sans-serif" font-size="28" font-weight="400">
    See if your product appears in AI buying answers
  </text>

  <rect x="824" y="154" width="328" height="284" rx="28" fill="rgba(15, 23, 42, 0.74)" stroke="rgba(148, 163, 184, 0.18)"/>
  <rect x="842" y="172" width="292" height="248" rx="22" fill="url(#card)"/>
  <text x="876" y="214" fill="#67E8F9" font-family="Arial, Helvetica, sans-serif" font-size="20" font-weight="700" letter-spacing="2">
    LIVE SIGNAL
  </text>
  <text x="876" y="282" fill="#F8FAFC" font-family="Arial, Helvetica, sans-serif" font-size="62" font-weight="700">
    75 / 100
  </text>
  <text x="876" y="322" fill="#CBD5E1" font-family="Arial, Helvetica, sans-serif" font-size="22" font-weight="500">
    Coverage-adjusted AEO score
  </text>
  <rect x="876" y="354" width="220" height="12" rx="6" fill="rgba(148, 163, 184, 0.20)"/>
  <rect x="876" y="354" width="166" height="12" rx="6" fill="#22D3EE"/>
  <text x="876" y="404" fill="#E2E8F0" font-family="Arial, Helvetica, sans-serif" font-size="22" font-weight="500">
    Providers: Gemini
  </text>
  <text x="876" y="438" fill="#E2E8F0" font-family="Arial, Helvetica, sans-serif" font-size="22" font-weight="500">
    Context: Firecrawl
  </text>

  <g>
    <rect x="286" y="446" width="108" height="38" rx="19" fill="rgba(56,189,248,0.10)" stroke="rgba(56,189,248,0.24)"/>
    <text x="319" y="470" fill="#BAE6FD" font-family="Arial, Helvetica, sans-serif" font-size="17" font-weight="700">Gemini</text>

    <rect x="407" y="446" width="124" height="38" rx="19" fill="rgba(139,92,246,0.10)" stroke="rgba(139,92,246,0.24)"/>
    <text x="435" y="470" fill="#DDD6FE" font-family="Arial, Helvetica, sans-serif" font-size="17" font-weight="700">Firecrawl</text>

    <rect x="544" y="446" width="92" height="38" rx="19" fill="rgba(34,211,238,0.10)" stroke="rgba(34,211,238,0.24)"/>
    <text x="574" y="470" fill="#CFFAFE" font-family="Arial, Helvetica, sans-serif" font-size="17" font-weight="700">Next.js</text>

    <rect x="649" y="446" width="82" height="38" rx="19" fill="rgba(16,185,129,0.10)" stroke="rgba(16,185,129,0.24)"/>
    <text x="678" y="470" fill="#A7F3D0" font-family="Arial, Helvetica, sans-serif" font-size="17" font-weight="700">AEO</text>
  </g>

  <text x="286" y="542" fill="#64748B" font-family="Arial, Helvetica, sans-serif" font-size="22" font-weight="500">
    Diagnose visibility. Understand competitors. Rewrite the listing.
  </text>
</svg>
